<?xml version="1.0" encoding="UTF-8" standalone="no"?>
<!DOCTYPE svg PUBLIC "-//W3C//DTD SVG 1.1//EN" "http://www.w3.org/Graphics/SVG/1.1/DTD/svg11.dtd">
<svg width="100%" height="100%" viewBox="0 0 111 52" preserveAspectRatio="xMinYMin" version="1.1" xmlns="http://www.w3.org/2000/svg" xmlns:xlink="http://www.w3.org/1999/xlink" xml:space="preserve" xmlns:serif="http://www.serif.com/" style="fill-rule:evenodd;clip-rule:evenodd;stroke-linejoin:round;stroke-miterlimit:2;">
    <g transform="matrix(1,0,0,1,-1.0368e-08,-27.6129)">
        <path d="M109.604,56.176C109.41,56.185 109.207,56.195 109.048,56.195C107.257,56.195 104.93,55.895 104.93,53.689L104.93,42.7L109.202,42.7C109.643,42.7 110.001,42.342 110.001,41.902L110.001,34.169C110.001,33.84 109.735,33.574 109.406,33.574L104.93,33.574L104.93,28.373C104.93,27.952 104.591,27.613 104.17,27.613L94.241,27.613C93.743,27.613 93.341,28.019 93.346,28.513L93.351,46.716C92.059,38.839 85.207,32.805 76.967,32.805C72.53,32.805 68.359,34.532 65.223,37.668C62.751,40.14 61.159,43.252 60.593,46.629C59.577,40.547 55.217,35.679 49.507,33.777C47.78,33.163 45.931,32.819 43.996,32.819C42.738,32.819 41.514,32.965 40.338,33.231C39.515,33.4 38.78,33.627 38.126,33.898C36.844,34.387 35.644,35.04 34.536,35.815L34.11,34.556C33.985,34.194 33.646,33.947 33.259,33.947L26.412,33.947C26.001,33.947 25.662,34.281 25.662,34.697L25.662,52.823C23.547,45.032 11.543,45.826 11.543,42.985C11.543,42.448 12.08,41.906 13.338,41.906C14.872,41.906 16.101,42.487 17.102,43.203C17.673,43.615 18.447,43.595 18.999,43.16L24.675,38.665C25.13,38.302 25.173,37.629 24.762,37.218C22.468,34.924 18.844,32.8 13.58,32.8C6.268,32.8 0.641,36.816 0.641,43.044C0.641,54.187 14.901,53.05 14.901,55.682C14.901,56.282 14.301,56.819 12.743,56.819C10.556,56.819 8.538,56.127 6.844,55.15C6.312,54.845 5.644,54.932 5.209,55.368L0.273,60.303C-0.109,60.685 -0.085,61.3 0.312,61.663C2.688,63.84 7.454,65.984 12.806,65.984C19.439,65.984 24.394,63.289 25.662,58.087L25.662,75.753C25.662,76.227 26.049,76.615 26.523,76.615L36.389,76.615C36.883,76.615 37.28,76.218 37.28,75.724L37.28,64.426C38.276,64.876 39.317,65.239 40.401,65.485C41.46,65.785 42.67,65.989 44.025,65.989C46.13,65.989 48.051,65.621 49.764,64.948C55.333,62.96 59.567,58.102 60.578,52.116C61.875,59.989 68.727,66.013 76.962,66.013C81.399,66.013 85.57,64.285 88.706,61.15C91.198,58.658 92.794,55.513 93.351,52.106L93.351,53.81C93.351,62.282 97.885,66.221 106.004,66.221C107.722,66.221 108.883,66.09 109.536,65.989C109.909,65.931 110.18,65.606 110.18,65.229L110.18,56.723C110.18,56.408 109.919,56.156 109.604,56.176ZM43.236,56.485C39.385,56.485 36.259,53.36 36.259,49.508C36.259,45.656 39.385,42.531 43.236,42.531C47.088,42.531 50.214,45.656 50.214,49.508C50.219,53.36 47.093,56.485 43.236,56.485ZM83.131,52.068C82.701,52.508 80.562,54.734 78.922,56.442C77.843,57.565 76.086,57.565 75.007,56.442C73.362,54.729 71.223,52.503 70.798,52.068C69.38,50.616 68.678,49.16 68.659,47.616C68.635,45.627 69.854,43.798 71.673,43.189C73.783,42.482 75.951,43.45 76.948,45.347L76.972,45.39L76.996,45.347C77.993,43.455 80.16,42.482 82.265,43.189C84.085,43.798 85.304,45.627 85.28,47.616C85.251,49.16 84.549,50.616 83.131,52.068Z" style="fill:rgb(240,73,35);fill-rule:nonzero;"/>
        <path d="M44.509,71.544C44.823,71.379 45.181,71.297 45.578,71.297C46.033,71.297 46.449,71.408 46.822,71.631C47.199,71.853 47.489,72.168 47.707,72.574C47.92,72.976 48.031,73.44 48.031,73.968C48.031,74.49 47.925,74.96 47.707,75.371C47.494,75.782 47.199,76.106 46.822,76.334C46.444,76.566 46.033,76.677 45.578,76.677C45.181,76.677 44.828,76.595 44.518,76.435C44.209,76.276 43.957,76.073 43.764,75.835L43.764,79.073L42.685,79.073L42.685,71.379L43.764,71.379L43.764,72.144C43.943,71.911 44.194,71.708 44.509,71.544ZM46.706,73.034C46.556,72.773 46.362,72.574 46.12,72.439C45.878,72.303 45.617,72.235 45.341,72.235C45.07,72.235 44.814,72.303 44.572,72.444C44.33,72.584 44.131,72.782 43.986,73.048C43.836,73.315 43.764,73.624 43.764,73.987C43.764,74.345 43.836,74.66 43.986,74.931C44.136,75.197 44.33,75.4 44.572,75.54C44.814,75.681 45.07,75.748 45.341,75.748C45.617,75.748 45.878,75.676 46.12,75.535C46.362,75.395 46.56,75.187 46.706,74.916C46.856,74.645 46.928,74.331 46.928,73.973C46.928,73.61 46.856,73.295 46.706,73.034Z" style="fill:rgb(240,73,35);fill-rule:nonzero;"/>
        <path d="M54.07,74.394L50.088,74.394C50.117,74.81 50.272,75.144 50.552,75.395C50.828,75.647 51.172,75.773 51.573,75.773C52.154,75.773 52.565,75.531 52.802,75.042L53.964,75.042C53.804,75.521 53.519,75.913 53.107,76.218C52.696,76.523 52.183,76.677 51.569,76.677C51.07,76.677 50.625,76.566 50.228,76.344C49.836,76.121 49.527,75.806 49.299,75.395C49.072,74.984 48.965,74.519 48.965,73.982C48.965,73.445 49.072,72.976 49.29,72.569C49.507,72.163 49.812,71.848 50.209,71.626C50.601,71.403 51.056,71.297 51.569,71.297C52.062,71.297 52.498,71.403 52.885,71.621C53.267,71.834 53.567,72.139 53.785,72.526C53.998,72.913 54.104,73.358 54.104,73.866C54.109,74.06 54.099,74.234 54.07,74.394ZM52.986,73.523C52.981,73.126 52.836,72.806 52.56,72.565C52.285,72.323 51.941,72.206 51.53,72.206C51.157,72.206 50.838,72.323 50.572,72.56C50.306,72.797 50.151,73.116 50.098,73.523L52.986,73.523Z" style="fill:rgb(240,73,35);fill-rule:nonzero;"/>
        <path d="M56.664,72.265L56.664,75.148C56.664,75.342 56.707,75.482 56.799,75.569C56.891,75.656 57.046,75.695 57.269,75.695L57.931,75.695L57.931,76.595L57.08,76.595C56.596,76.595 56.223,76.484 55.962,76.256C55.706,76.029 55.575,75.661 55.575,75.148L55.575,72.265L54.96,72.265L54.96,71.384L55.575,71.384L55.575,70.087L56.664,70.087L56.664,71.384L57.931,71.384L57.931,72.265L56.664,72.265Z" style="fill:rgb(240,73,35);fill-rule:nonzero;"/>
        <path d="M61.914,70.494C61.783,70.363 61.715,70.198 61.715,70C61.715,69.806 61.783,69.642 61.914,69.506C62.044,69.376 62.209,69.308 62.407,69.308C62.596,69.308 62.756,69.376 62.891,69.506C63.022,69.637 63.09,69.802 63.09,70C63.09,70.194 63.022,70.358 62.891,70.494C62.76,70.624 62.596,70.692 62.407,70.692C62.214,70.692 62.049,70.629 61.914,70.494ZM62.94,71.384L62.94,76.595L61.86,76.595L61.86,71.384L62.94,71.384Z" style="fill:rgb(240,73,35);fill-rule:nonzero;"/>
        <path d="M68.325,71.553C68.649,71.723 68.906,71.974 69.085,72.308C69.269,72.642 69.36,73.048 69.36,73.518L69.36,76.59L68.291,76.59L68.291,73.677C68.291,73.213 68.175,72.855 67.943,72.603C67.71,72.352 67.391,72.231 66.985,72.231C66.578,72.231 66.259,72.356 66.027,72.603C65.79,72.85 65.673,73.208 65.673,73.677L65.673,76.59L64.594,76.59L64.594,71.384L65.673,71.384L65.673,71.979C65.852,71.766 66.075,71.597 66.351,71.476C66.627,71.355 66.917,71.297 67.227,71.297C67.633,71.297 68.001,71.384 68.325,71.553Z" style="fill:rgb(240,73,35);fill-rule:nonzero;"/>
        <path d="M71.76,76.46C71.436,76.31 71.18,76.111 70.991,75.855C70.802,75.598 70.701,75.313 70.686,74.998L71.804,74.998C71.823,75.221 71.93,75.405 72.119,75.55C72.312,75.7 72.554,75.773 72.844,75.773C73.149,75.773 73.381,75.715 73.551,75.598C73.715,75.482 73.802,75.332 73.802,75.148C73.802,74.955 73.71,74.81 73.522,74.713C73.338,74.616 73.043,74.515 72.636,74.398C72.244,74.292 71.925,74.185 71.678,74.084C71.431,73.982 71.219,73.827 71.04,73.619C70.86,73.411 70.769,73.135 70.769,72.797C70.769,72.521 70.851,72.265 71.015,72.037C71.18,71.805 71.412,71.626 71.722,71.495C72.027,71.365 72.38,71.297 72.777,71.297C73.372,71.297 73.846,71.447 74.209,71.747C74.572,72.047 74.765,72.453 74.79,72.971L73.71,72.971C73.691,72.739 73.599,72.55 73.425,72.415C73.256,72.274 73.023,72.206 72.733,72.206C72.448,72.206 72.23,72.26 72.08,72.366C71.93,72.473 71.852,72.613 71.852,72.792C71.852,72.932 71.901,73.048 72.002,73.14C72.104,73.232 72.225,73.31 72.37,73.363C72.515,73.416 72.728,73.484 73.014,73.566C73.391,73.668 73.701,73.769 73.948,73.876C74.19,73.977 74.398,74.132 74.577,74.335C74.756,74.539 74.843,74.805 74.852,75.139C74.852,75.434 74.77,75.7 74.606,75.932C74.441,76.165 74.209,76.348 73.909,76.479C73.609,76.61 73.256,76.677 72.854,76.677C72.452,76.682 72.085,76.61 71.76,76.46Z" style="fill:rgb(240,73,35);fill-rule:nonzero;"/>
        <path d="M80.978,71.384L80.978,76.595L79.899,76.595L79.899,75.981C79.73,76.194 79.507,76.363 79.231,76.489C78.956,76.61 78.665,76.673 78.356,76.673C77.944,76.673 77.577,76.585 77.252,76.416C76.928,76.247 76.672,75.995 76.488,75.661C76.304,75.327 76.207,74.921 76.207,74.452L76.207,71.389L77.277,71.389L77.277,74.292C77.277,74.756 77.393,75.115 77.625,75.366C77.857,75.618 78.177,75.739 78.578,75.739C78.98,75.739 79.304,75.613 79.541,75.366C79.778,75.119 79.894,74.761 79.894,74.292L79.894,71.389L80.978,71.389L80.978,71.384Z" style="fill:rgb(240,73,35);fill-rule:nonzero;"/>
        <path d="M84.341,71.519C84.602,71.369 84.912,71.297 85.275,71.297L85.275,72.415L84.999,72.415C84.578,72.415 84.259,72.521 84.041,72.739C83.823,72.952 83.717,73.324 83.717,73.856L83.717,76.6L82.638,76.6L82.638,71.384L83.717,71.384L83.717,72.139C83.872,71.877 84.08,71.669 84.341,71.519Z" style="fill:rgb(240,73,35);fill-rule:nonzero;"/>
        <path d="M86.47,72.574C86.688,72.173 86.983,71.858 87.36,71.631C87.738,71.408 88.149,71.297 88.604,71.297C89.015,71.297 89.373,71.379 89.678,71.539C89.983,71.698 90.23,71.902 90.414,72.139L90.414,71.384L91.502,71.384L91.502,76.595L90.414,76.595L90.414,75.821C90.23,76.068 89.983,76.271 89.669,76.435C89.354,76.6 88.996,76.682 88.59,76.682C88.14,76.682 87.733,76.566 87.36,76.339C86.988,76.106 86.693,75.787 86.475,75.376C86.257,74.965 86.151,74.495 86.151,73.973C86.146,73.445 86.252,72.981 86.47,72.574ZM90.191,73.048C90.041,72.782 89.848,72.584 89.61,72.444C89.369,72.303 89.112,72.235 88.836,72.235C88.56,72.235 88.299,72.303 88.062,72.439C87.82,72.574 87.627,72.773 87.481,73.034C87.331,73.295 87.259,73.605 87.259,73.968C87.259,74.326 87.331,74.64 87.481,74.911C87.631,75.182 87.825,75.39 88.067,75.531C88.309,75.671 88.565,75.744 88.836,75.744C89.112,75.744 89.373,75.676 89.61,75.535C89.852,75.395 90.046,75.192 90.191,74.926C90.341,74.66 90.414,74.345 90.414,73.982C90.414,73.624 90.336,73.315 90.191,73.048Z" style="fill:rgb(240,73,35);fill-rule:nonzero;"/>
        <path d="M96.888,71.553C97.212,71.723 97.469,71.974 97.648,72.308C97.831,72.642 97.923,73.048 97.923,73.518L97.923,76.59L96.854,76.59L96.854,73.677C96.854,73.213 96.738,72.855 96.506,72.603C96.273,72.352 95.954,72.231 95.548,72.231C95.141,72.231 94.822,72.356 94.59,72.603C94.352,72.85 94.236,73.208 94.236,73.677L94.236,76.59L93.157,76.59L93.157,71.384L94.236,71.384L94.236,71.979C94.415,71.766 94.638,71.597 94.914,71.476C95.19,71.355 95.48,71.297 95.79,71.297C96.196,71.297 96.564,71.384 96.888,71.553Z" style="fill:rgb(240,73,35);fill-rule:nonzero;"/>
        <path d="M99.501,72.569C99.719,72.163 100.019,71.848 100.406,71.626C100.788,71.403 101.233,71.297 101.731,71.297C102.36,71.297 102.883,71.447 103.299,71.747C103.71,72.047 103.991,72.473 104.136,73.029L102.97,73.029C102.873,72.768 102.723,72.569 102.515,72.424C102.307,72.279 102.046,72.206 101.731,72.206C101.291,72.206 100.938,72.361 100.677,72.676C100.415,72.985 100.285,73.426 100.285,73.987C100.285,74.548 100.415,74.989 100.677,75.303C100.938,75.618 101.291,75.777 101.731,75.777C102.356,75.777 102.767,75.502 102.97,74.955L104.136,74.955C103.986,75.482 103.701,75.903 103.285,76.218C102.869,76.532 102.351,76.687 101.731,76.687C101.233,76.687 100.793,76.576 100.406,76.353C100.019,76.131 99.719,75.816 99.501,75.405C99.283,74.998 99.177,74.529 99.177,73.992C99.172,73.45 99.283,72.976 99.501,72.569Z" style="fill:rgb(240,73,35);fill-rule:nonzero;"/>
        <path d="M110.185,74.394L106.202,74.394C106.236,74.81 106.386,75.144 106.667,75.395C106.943,75.647 107.286,75.773 107.688,75.773C108.269,75.773 108.68,75.531 108.917,75.042L110.083,75.042C109.923,75.521 109.638,75.913 109.227,76.218C108.815,76.523 108.302,76.677 107.688,76.677C107.19,76.677 106.744,76.566 106.348,76.344C105.951,76.121 105.646,75.806 105.419,75.395C105.196,74.989 105.085,74.519 105.085,73.982C105.085,73.445 105.191,72.976 105.409,72.569C105.627,72.163 105.931,71.848 106.328,71.626C106.72,71.403 107.175,71.297 107.688,71.297C108.181,71.297 108.617,71.403 109.004,71.621C109.386,71.834 109.686,72.139 109.904,72.526C110.117,72.913 110.228,73.358 110.228,73.866C110.223,74.06 110.209,74.234 110.185,74.394ZM109.096,73.523C109.091,73.126 108.946,72.806 108.67,72.565C108.394,72.323 108.051,72.206 107.64,72.206C107.267,72.206 106.948,72.323 106.686,72.56C106.42,72.797 106.265,73.116 106.212,73.523L109.096,73.523Z" style="fill:rgb(240,73,35);fill-rule:nonzero;"/>
    </g>
</svg>
